<svg width="64" height="56" viewBox="0 0 64 56" fill="none" xmlns="http://www.w3.org/2000/svg">
<path d="M6.55273 14.0654H6.55371C10.0635 14.0657 13.7234 17.0402 15.6045 21.5635C16.96 24.8246 17.1044 28.3064 16.0234 30.8867C15.3119 32.5839 14.1317 33.7919 12.6172 34.4004L12.6064 34.4043L12.5996 34.4072C11.9107 34.6773 11.1765 34.816 10.4365 34.8154C6.92662 34.8153 3.26685 31.8399 1.38574 27.3164C0.0301286 24.0551 -0.114371 20.5735 0.966797 17.9932C1.67741 16.2983 2.85424 15.0855 4.36035 14.4814L4.36133 14.4824L4.37988 14.4756L4.38672 14.4727C5.07676 14.2022 5.81158 14.0644 6.55273 14.0654ZM57.1787 14.0654C57.92 14.0647 58.6554 14.2024 59.3457 14.4727L59.3486 14.4746L59.3643 14.4795V14.4805C60.7809 15.0507 61.906 16.1492 62.6299 17.6836L62.7695 17.9961C63.8519 20.5725 63.714 24.0553 62.373 27.3125C60.4826 31.8413 56.8215 34.8152 53.3076 34.8154H53.3066C52.5655 34.8161 51.8308 34.6774 51.1406 34.4072H51.1396L51.125 34.4014C49.6075 33.793 48.426 32.5836 47.7129 30.8848C46.6995 28.4709 46.7635 25.2563 47.8945 22.1768L48.1357 21.5625C49.9336 17.2332 53.3906 14.3046 56.7705 14.0781L57.0977 14.0654H57.1787ZM21.9746 0.25293C23.9411 0.253086 25.8827 1.29342 27.4248 3.22754C28.8012 4.95193 29.7684 7.28776 30.1309 9.80371C30.5641 12.7974 30.119 15.5746 29.0488 17.6719C28.0457 19.6374 26.5025 20.9948 24.624 21.4053L24.2432 21.4746C23.9772 21.5143 23.7084 21.5341 23.4395 21.5342C21.4718 21.5342 19.5324 20.4921 17.9873 18.5537C16.6967 16.9356 15.7653 14.7837 15.3564 12.4512L15.2822 11.9824C14.8489 8.98849 15.2948 6.21163 16.3652 4.11426C17.3685 2.14858 18.9114 0.792088 20.79 0.381836L21.1699 0.3125C21.4361 0.272826 21.7055 0.252994 21.9746 0.25293ZM41.7656 0.25C42.0346 0.250064 42.3033 0.269935 42.5693 0.30957H42.5703C44.6208 0.612437 46.305 2.01682 47.375 4.11328C48.4454 6.21062 48.8913 8.98701 48.458 11.9795C48.0916 14.4948 47.129 16.828 45.7539 18.5537C44.209 20.4919 42.2716 21.534 40.3027 21.5342C40.1682 21.5341 40.0335 21.5285 39.8994 21.5186L39.498 21.4746C37.4476 21.1731 35.7634 19.769 34.6934 17.6729C33.6899 15.7069 33.2349 13.1437 33.5391 10.3652L33.6104 9.80664C33.9489 7.44544 34.8207 5.2453 36.0625 3.55859L36.3154 3.22754C37.8575 1.29356 39.799 0.252741 41.7656 0.25ZM8.85156 46.5967C8.8435 45.4927 9.04673 44.3974 9.45117 43.3701L9.4541 43.3643C10.4898 40.527 12.8862 39.0773 15.2979 37.6279C17.3829 36.3737 19.4153 35.1569 20.7432 32.9629C22.53 30.0048 23.9408 27.6735 25.5986 26.0742C27.2391 24.4917 29.122 23.6279 31.8701 23.6279C34.6182 23.6279 36.4996 24.4918 38.1377 26.0742C39.7932 27.6734 41.2005 30.0047 42.9834 32.9629C44.3086 35.1543 46.3374 36.3691 48.416 37.6182C50.8263 39.0675 53.224 40.5187 54.2598 43.3584L54.2627 43.3652C54.6713 44.3919 54.8796 45.4878 54.876 46.5928V46.5938C54.8757 51.2408 51.2647 55.0028 46.8516 55.0029C44.8246 55.0029 42.6903 54.3895 40.4062 53.6582L39.418 53.3389C36.8866 52.5114 34.2134 51.6359 31.8838 51.6357C29.5542 51.6357 26.8737 52.5114 24.333 53.3389C21.6677 54.2069 19.1986 55.0078 16.8887 55.0078C12.4683 55.0078 8.85158 51.2456 8.85156 46.5986V46.5967Z" fill="#4D594D" stroke="#2F382F" stroke-width="0.5"/>
</svg>
