<svg width="45" height="40" viewBox="0 0 45 40" fill="none" xmlns="http://www.w3.org/2000/svg">
<path d="M22.5 37.2656L23.4703 39.1388C23.1705 39.2941 22.8377 39.3752 22.5 39.3752C22.1623 39.3752 21.8295 39.2941 21.5297 39.1388L21.5072 39.1275L21.4566 39.0994C21.162 38.9474 20.8712 38.7879 20.5847 38.6213C17.1563 36.6711 13.9222 34.3977 10.9266 31.8319C5.75156 27.3684 0 20.6719 0 12.6562C0 5.16375 5.86687 0 11.9531 0C16.3041 0 20.1178 2.25562 22.5 5.68125C24.8822 2.25562 28.6959 0 33.0469 0C39.1331 0 45 5.16375 45 12.6562C45 20.6719 39.2484 27.3684 34.0734 31.8319C30.824 34.6117 27.2951 37.0473 23.5434 39.0994L23.4928 39.1275L23.4759 39.1359H23.4703L22.5 37.2656ZM11.9531 4.21875C8.19563 4.21875 4.21875 7.4925 4.21875 12.6562C4.21875 18.7031 8.6625 24.3113 13.6828 28.6369C16.4221 30.9794 19.3739 33.0613 22.5 34.8553C25.6261 33.0613 28.5779 30.9794 31.3172 28.6369C36.3375 24.3113 40.7812 18.7031 40.7812 12.6562C40.7812 7.4925 36.8044 4.21875 33.0469 4.21875C29.1853 4.21875 25.7091 6.99187 24.5278 11.1262C24.4034 11.5683 24.138 11.9576 23.7719 12.2349C23.4059 12.5122 22.9592 12.6622 22.5 12.6622C22.0408 12.6622 21.5941 12.5122 21.2281 12.2349C20.862 11.9576 20.5966 11.5683 20.4722 11.1262C19.2909 6.99187 15.8147 4.21875 11.9531 4.21875Z" fill="#0C545B"/>
</svg>
