<svg width="79" height="75" viewBox="0 0 79 75" fill="none" xmlns="http://www.w3.org/2000/svg">
<path d="M73.9577 0.899493C74.2661 0.505743 74.9224 -0.255508 76.3202 0.0857425C77.718 0.426992 78.8927 1.85762 78.7089 4.52199C78.4727 8.09199 75.4671 10.6317 75.4671 10.6317C75.4671 10.6317 76.5236 10.6054 77.1011 11.0845C77.6786 11.5636 78.3283 13.2436 77.718 15.5929C77.1077 17.9423 74.824 20.7051 74.824 20.7051C74.824 20.7051 76.5302 20.5673 77.4293 21.847C78.3415 23.1398 77.3899 27.0248 74.8764 29.8073C70.8405 34.2764 64.1993 37.0261 64.1993 37.0261C64.1993 37.0261 65.0786 37.1114 65.6693 37.9842C66.3583 39.0014 65.4855 42.4204 62.0271 45.052C59.1068 47.2701 56.3111 48.3989 56.3111 48.3989C56.3111 48.3989 57.4202 48.5236 57.6696 49.1732C58.1552 50.4332 57.0068 53.1107 55.1889 54.7382C52.9971 56.707 51.1989 57.232 51.1989 57.232C51.1989 57.232 51.8027 59.3386 50.5296 61.5304C48.5739 64.897 44.3739 65.4942 44.3739 65.4942C44.3739 65.4942 44.7874 67.9092 42.0639 69.8451C40.069 71.2626 38.028 71.9582 33.5196 71.827C30.4746 71.7351 28.7683 70.9411 25.0933 70.9739C21.4183 71.0067 16.1289 74.452 11.3449 74.2354C7.63051 74.0648 5.45832 72.4504 4.26395 69.4579C2.61676 65.317 4.57895 65.5336 4.57895 65.5336C4.57895 65.5336 7.79457 47.1782 20.4471 39.5001C33.0996 31.822 64.9408 9.56199 66.7849 8.21668C68.6289 6.87137 72.8355 2.33668 73.9577 0.899493Z" fill="#3B5E7B"/>
<path d="M55.1169 15.0216C55.1169 15.0216 57.9059 13.5582 62.0141 10.966C66.1812 8.33445 68.8456 5.86695 71.1884 3.6882C72.6387 2.33632 74.1087 0.708824 74.1087 0.708824C74.1087 0.708824 75.3294 0.623512 76.1038 1.49632C76.8716 2.36914 77.8822 5.24351 73.3409 10.1063C67.6381 16.216 56.1078 22.2535 55.6025 22.6079C54.7822 23.1919 55.2875 24.3273 56.2128 23.9138C57.1381 23.5004 64.1731 20.8295 67.9203 17.9026C71.6675 14.9757 74.4959 12.0488 74.4959 12.0488C74.4959 12.0488 76.1366 12.4623 75.8806 14.6673C75.6247 16.8723 73.5509 19.2676 71.0506 21.3938C67.5003 24.4126 59.225 29.3738 55.7337 31.0145C55.1169 31.3032 54.2178 31.7232 54.5 32.3138C55.0447 33.4426 55.9634 32.7076 59.0741 31.0998C62.2569 29.4526 73.2622 22.6407 73.8791 22.6932C74.4959 22.7457 75.4803 23.5398 75.3097 25.0229C75.08 26.9654 72.7962 29.5641 67.73 32.6945C61.2463 36.7041 58.4572 38.1216 54.9266 39.7229C52.4394 40.8516 50.8184 41.206 50.2869 41.4423C49.5519 41.777 49.4666 42.7088 50.6084 42.676C50.9694 42.6629 54.3359 41.6654 56.1997 41.0288C59.0413 40.0641 61.4431 38.5679 62.0206 38.3448C62.6834 38.0888 63.1297 39.047 63.1363 39.7688C63.1494 41.1535 62.1387 43.0238 57.9191 45.5438C54.7362 47.447 50.6741 48.8907 45.7128 49.6126C44.525 49.7832 44.7481 50.7348 45.365 50.7348C45.9819 50.7348 48.3706 51.7848 49.7488 51.6404C51.1269 51.496 53.9094 49.3566 54.3819 49.4288C54.8544 49.501 55.2481 51.0563 54.0931 52.5066C52.9316 53.957 50.7725 55.906 46.4544 56.6804C43.0747 57.2841 41.1322 57.2973 40.745 57.3235C39.9378 57.3826 39.8853 58.1832 40.7188 58.4063C41.8016 58.7016 49.0269 58.262 49.0662 58.6623C49.0925 58.9313 48.8891 61.1954 46.6512 62.567C44.2166 64.0566 40.0363 64.1879 38.8813 64.2666C37.7197 64.3388 36.9191 64.2798 36.3941 64.306C35.6066 64.3454 35.6197 65.297 36.3547 65.4216C36.7091 65.4807 37.9756 65.566 38.9469 65.5332C39.9247 65.4938 40.6531 65.4938 41.0141 65.461C41.375 65.4216 42.0444 65.3888 42.1887 65.7629C42.53 66.6291 40.2397 69.4904 35.3244 69.8316C31.6297 70.0876 29.93 69.2935 27.9613 69.0573C26.5963 68.8932 23.4922 68.5323 20.3028 69.7463C17.1134 70.9604 11.4959 72.9488 8.73312 71.0916C5.01875 68.5979 3.96875 63.3085 3.96875 63.3085L7.32219 49.8882L55.1169 15.0216Z" fill="white"/>
<path d="M50.8443 14.3263C51.074 13.8669 51.2577 13.7291 51.3496 13.2763C51.4415 12.8235 52.078 12.0425 53.1805 12.1344C54.2765 12.2263 56.0155 13.25 55.8318 17.3581C55.6611 21.2563 51.3496 25.2922 51.3496 25.2922C51.3496 25.2922 52.7211 25.9288 53.2199 27.3003C53.7252 28.6719 53.5415 32.1041 50.6146 34.985C47.6877 37.866 46.0799 38.4697 46.0799 38.4697C46.0799 38.4697 47.4121 38.8241 47.8255 40.4647C48.2324 42.1053 47.3661 45.0781 44.5836 47.27C41.7946 49.4619 39.5436 50.3806 39.5436 50.3806C39.5436 50.3806 40.9808 50.4331 41.4336 51.5291C41.893 52.625 41.6502 55.2566 37.7849 57.7438C34.9499 59.5681 32.9352 60.3819 32.9352 60.3819C32.9352 60.3819 34.4774 60.6772 34.6546 62.0488C34.8318 63.4203 34.1033 65.586 31.6555 66.9641C29.6605 68.0863 27.344 68.6244 27.1602 67.8041C26.9765 66.9838 22.2908 63.3547 21.6477 62.6722C21.0046 61.9897 24.2071 37.6297 27.134 34.8013C30.0608 31.9728 44.2227 21.8666 44.039 22.0044C43.8552 22.1422 50.8443 14.3263 50.8443 14.3263Z" fill="#3B5E7B"/>
<path d="M34.6552 25.4626C34.6552 25.4626 39.8068 22.4832 42.4974 20.6654C47.5702 17.2332 51.2912 13.2826 51.383 13.1448C51.4749 13.007 52.223 12.9086 52.899 13.4795C53.9621 14.3917 55.0777 17.4957 52.1968 21.3282C49.3159 25.1607 46.2643 27.2082 42.294 29.5314C39.3802 31.2311 35.528 33.1736 35.1212 33.4098C34.583 33.7314 34.478 34.9257 36.5649 33.9807C37.2802 33.6592 39.5771 33.9086 42.609 32.6486C45.6474 31.3886 48.2002 27.7529 48.443 27.6348C49.0927 27.3264 50.123 27.0901 50.9565 27.7661C51.8555 28.4879 51.954 30.4698 50.0902 32.8257C47.6818 35.8773 44.0199 37.6229 40.8765 39.4604C37.5952 41.3832 32.798 43.8901 32.4305 44.0936C31.9121 44.3823 32.004 45.5242 32.9884 45.0779C33.5724 44.8154 39.7215 43.1354 40.8371 42.5645C41.9462 41.9936 44.6105 39.5654 44.8468 39.5326C45.2077 39.4801 46.0674 39.9526 46.3102 40.9436C46.553 41.9345 45.969 44.1592 42.1299 46.922C38.1268 49.8095 33.4937 51.3976 31.8727 52.0867C30.2518 52.7757 28.6571 53.2679 29.0837 54.1211C29.2937 54.5345 29.7727 54.3967 31.2362 53.7273C31.899 53.4254 32.4371 54.0292 33.743 53.7142C36.893 52.9726 38.2974 51.7651 38.2974 51.7651C38.2974 51.7651 39.3934 51.9357 39.4196 52.8742C39.4721 54.7182 37.5952 56.3589 34.0777 58.1045C30.5602 59.8501 27.0034 60.9198 26.5965 61.0839C25.6384 61.4645 25.9009 62.3504 26.7146 62.1011C27.6334 61.8189 28.4077 61.5498 29.4643 61.3989C30.5143 61.2479 32.3846 61.0248 32.9949 61.7795C33.6446 62.5736 33.159 64.5554 30.9409 65.9073C28.7162 67.2592 27.2068 66.977 27.1674 67.8301C27.1609 68.0139 27.4693 68.1517 27.548 68.3879C27.7384 68.9654 23.7746 67.3051 23.7746 67.3051L18.623 60.467L21.5499 40.5695L27.3643 32.1432L34.6552 25.4626Z" fill="white"/>
<path d="M31.9833 24.7211C32.0621 24.557 32.5083 23.6842 33.6502 23.8285C35.1071 24.0123 36.9774 25.9417 35.8815 29.9973C34.7855 34.0595 32.4033 35.6739 32.4033 35.6739C32.4033 35.6739 33.6305 37.5245 32.7249 40.051C31.629 43.1026 28.9121 45.1173 28.9121 45.1173C28.9121 45.1173 30.1327 46.3839 29.4108 48.9039C28.5971 51.7389 26.3068 53.6289 26.3068 53.6289C26.3068 53.6289 27.2255 54.1539 26.9827 55.8601C26.7399 57.5664 25.4405 59.7779 22.9993 61.0576C20.8205 62.206 19.8493 62.4357 19.8493 62.4357C19.8493 62.4357 21.0699 62.882 20.8205 64.142C20.5777 65.402 18.9305 67.5873 15.8658 68.447C13.2211 69.1885 13.4049 68.0795 14.1333 67.7907C14.8618 67.502 14.3236 61.4645 14.3236 61.4645C14.3236 61.4645 16.3908 36.1332 16.4761 35.9298C16.5549 35.7264 29.9555 27.0835 30.5199 26.552C31.0843 26.0204 31.9833 24.7211 31.9833 24.7211Z" fill="#3B5E7B"/>
<path d="M11.3653 40.1166C11.3653 40.1166 14.43 36.0151 15.9722 34.906C17.5209 33.7969 19.785 32.4385 19.2993 32.1498C18.8137 31.861 9.08153 35.6344 4.3434 41.5013C-0.0731597 46.9679 -1.0116 53.8323 1.02934 60.8344C1.99403 64.142 3.83153 68.0795 3.83153 68.0795C3.83153 68.0795 3.7134 67.2657 4.27778 66.9376C4.96028 66.5373 5.57059 67.4757 5.57059 67.4757C5.57059 67.4757 5.41309 64.1026 5.13747 62.882C4.2909 59.1676 5.27528 48.2345 5.27528 48.2345L11.3653 40.1166Z" fill="white"/>
<path d="M62.7038 12.8692C61.8638 13.3549 57.4013 15.0939 57.4013 15.4089C57.4013 15.7239 57.6507 17.253 59.9475 16.6361C62.2838 16.0127 67.6978 13.112 70.8413 10.2836C73.9847 7.45517 75.796 5.63736 76.2881 3.54392C76.5506 2.41517 76.5244 1.66048 75.6122 1.06329C74.7066 0.47267 74.6475 1.90329 74.5425 2.11329C74.4375 2.32329 71.7469 6.64798 67.77 9.26642C63.7866 11.8914 62.7038 12.8692 62.7038 12.8692ZM37.1953 26.3552C37.1888 27.0639 38.5341 28.3699 41.4938 27.3199C42.6028 26.9261 45.3525 25.6005 47.4066 23.9336C50.34 21.558 52.1381 19.5761 52.4991 17.5286C52.7419 16.1505 52.4269 15.048 52.1775 14.7199C51.7575 14.792 47.4394 20.0224 47.1966 20.2324C46.9603 20.4424 37.2019 25.9024 37.1953 26.3552Z" fill="white"/>
<path d="M37.1817 25.2461C37.4114 24.9836 42.5301 22.1355 44.8664 20.4424C49.4732 17.089 51.1861 14.4574 51.5995 14.2868C52.0195 14.1096 52.3542 14.8774 52.387 15.153C52.4198 15.4286 51.5273 17.194 49.8867 18.8346C48.607 20.1143 44.7548 23.2315 42.1364 24.6293C39.5179 26.0271 37.3392 26.9065 37.2276 26.5783C37.1948 26.4733 36.9389 25.5283 37.1817 25.2461ZM74.5617 1.14207C74.017 1.73926 72.6914 4.33801 66.3717 9.14176C62.3817 12.1802 58.4836 14.1818 57.7814 14.7133C57.3286 15.0546 57.3614 15.4286 57.4664 15.7043C57.5714 15.9799 58.1423 15.9799 58.6936 15.8683C59.7042 15.6583 63.7795 13.7749 68.0714 10.3558C72.3632 6.93676 74.6011 4.5152 75.0539 3.76051C75.6576 2.75645 76.2811 1.82457 75.7823 1.23395C75.487 0.873012 74.8701 0.807387 74.5617 1.14207Z" fill="white"/>
<path d="M54.113 26.2373C54.4083 26.8279 55.4058 27.622 57.9193 26.5392C60.4327 25.4564 69.1805 20.1079 72.1861 17.1351C75.3427 14.0114 74.8702 12.1739 74.4961 12.0558C74.1221 11.9311 73.8727 12.0754 73.6299 12.2461C73.3871 12.4233 70.5258 15.0745 67.1002 17.3058C63.6746 19.537 58.8971 22.4376 57.0465 23.3826C55.1958 24.3211 53.6274 25.2595 54.113 26.2373ZM50.9302 36.2123C51.0943 37.6036 55.3468 37.4001 65.0527 31.6448C74.7587 25.8895 74.6405 23.1726 74.3977 22.9233C74.1549 22.6804 73.3149 22.3326 72.4093 22.7461C71.7268 23.0611 66.4374 26.8017 62.2833 29.2364C57.6437 31.9664 50.7399 34.6242 50.9302 36.2123ZM62.2308 38.332C62.5655 38.6076 62.2768 42.4204 55.8455 44.5008C50.8318 46.1217 48.7515 45.4129 48.5021 44.4089C48.1215 42.8733 49.4733 43.0111 52.3083 42.217C53.7915 41.8036 56.4033 41.0095 58.5493 40.0579C60.4721 39.2114 62.0143 38.1548 62.2308 38.332ZM45.3718 50.7417C44.6565 50.7548 42.9043 50.6498 42.8649 51.7983C42.8321 52.9533 45.4702 53.6095 47.6687 53.4848C50.1099 53.347 52.3215 52.612 53.5224 51.4767C54.848 50.2233 54.684 49.5736 54.3886 49.4358C53.6668 49.1011 51.3896 50.0198 50.2674 50.2298C48.9746 50.4792 47.3799 50.7023 45.3718 50.7417ZM38.094 59.5945C38.0808 60.3229 39.0521 61.3795 43.4227 61.2154C47.4587 61.0645 49.1058 59.1679 49.0665 58.702C49.0271 58.2361 48.8105 58.1179 48.0952 58.1048C47.334 58.0917 45.4111 58.3804 43.7574 58.4329C40.6796 58.5314 38.1268 58.0392 38.094 59.5945ZM33.9924 65.8092C33.4608 67.1151 35.5215 68.2045 37.5755 67.9879C40.2268 67.7057 41.9658 65.6845 41.5786 65.4614C41.3358 65.3236 38.783 65.4811 37.5952 65.4811C35.3508 65.4811 34.373 64.8642 33.9924 65.8092ZM26.7146 62.1011C26.183 62.2717 25.0411 63.0136 25.389 63.9914C25.7368 64.9692 26.7277 64.9429 28.329 64.4508C29.9302 63.9586 31.7743 62.7183 31.3543 61.8783C30.9343 61.0382 29.2477 61.307 26.7146 62.1011ZM32.2665 53.2223C35.5477 51.8376 38.3171 51.4373 38.7371 51.9558C38.9208 52.1854 38.1333 53.6489 34.5043 55.3617C30.8752 57.0745 28.0337 58.4001 27.8237 56.7923C27.6399 55.3879 29.1558 54.5348 32.2665 53.2223Z" fill="white"/>
<path d="M39.5038 46.1083C43.8285 43.6933 46.7817 40.8452 45.397 39.7099C44.3338 38.8371 41.3742 41.0486 37.8238 42.7943C34.0045 44.6711 32.4295 45.0715 31.0579 46.6465C30.1917 47.644 29.7192 49.8621 32.6329 49.0943C35.5467 48.3265 37.312 47.329 39.5038 46.1083ZM35.9995 34.3352C34.8117 35.208 33.486 37.5443 34.8117 38.3515C36.1373 39.1521 39.0313 37.7871 43.3298 35.313C47.1885 33.0883 49.8267 30.3255 49.7545 28.4683C49.7217 27.5955 48.8817 27.3855 48.2517 27.7333C47.6217 28.0811 44.6488 29.9383 41.8926 31.3296C39.5038 32.5502 37.0298 33.5805 35.9995 34.3352Z" fill="white"/>
<path d="M18.6616 32.2482C19.1669 32.0382 22.0544 31.0473 25.3619 29.282C26.95 28.4354 31.5634 25.0032 31.9769 24.721C32.3903 24.4388 33.7225 25.2132 33.8209 27.2804C33.88 28.5666 33.9325 31.067 31.9113 33.5345C29.9688 35.9101 25.8147 37.6229 22.9075 38.6138C21.3588 39.1388 19.8625 39.362 20.2431 40.1888C20.5844 40.9304 23.0913 40.2085 23.7081 40.0051C24.2988 39.8082 27.5734 37.9838 28.1116 37.5966C28.6563 37.2095 29.6866 36.5795 30.1328 36.6648C30.8547 36.796 32.3838 40.8254 26.5759 44.7301C24.2791 46.2723 19.2522 47.1254 19.9675 48.707C20.5844 50.0654 23.5703 49.4026 23.5703 49.4026L25.2569 46.9351C25.2569 46.9351 25.7163 46.666 26.5366 46.3116C27.2059 46.0229 27.3897 46.3248 27.4684 46.7841C27.6456 47.821 27.7572 49.862 25.4013 52.0407C22.5859 54.646 19.2259 54.8429 19.39 55.7485C19.4622 56.162 20.4203 55.9782 20.4203 55.9782C20.4203 55.9782 22.7041 55.1645 23.0716 55.0398C23.4391 54.9151 24.0231 54.8429 24.325 54.9938C25.0338 55.3416 25.1256 56.8641 23.2225 58.4916C21.3194 60.1191 16.8897 61.8713 16.8897 61.8713C16.8897 61.8713 18.9372 61.7663 18.7928 63.886C18.6222 66.4126 14.1531 67.771 14.1531 67.771C14.1531 67.771 11.3509 68.9129 8.58157 68.5913C6.95407 68.401 5.62188 67.6004 5.62188 67.6004C5.62188 67.6004 3.42345 63.8335 3.20032 60.2635C2.8722 55.0398 3.62688 48.8907 5.25438 45.9113C8.13532 40.6416 10.5175 37.9773 18.6616 32.2482Z" fill="white"/>
<path d="M4.82102 57.3304C4.76852 59.2072 7.05884 66.6557 7.63634 66.9641C8.20727 67.2791 10.281 67.581 11.9085 67.2791C14.8354 66.7344 17.4276 65.0938 17.3226 63.3219C17.2176 61.5501 14.0938 62.541 14.0938 61.9701C14.0938 61.3991 17.001 60.5985 20.0854 58.9513C23.8391 56.9366 23.6291 55.2041 23.4191 54.9941C23.2091 54.7841 20.046 56.3591 19.1338 55.9391C18.412 55.6044 18.4973 54.9285 19.1732 54.4822C20.2363 53.7735 22.5857 53.4191 24.2591 51.6472C26.2673 49.521 25.447 47.1454 25.2698 46.9419C24.7316 47.2832 21.2207 48.8451 20.407 48.8844C19.5801 48.9172 19.1338 47.9985 19.7638 47.2504C20.827 45.9904 25.4732 45.0322 27.9145 41.8757C29.8045 39.4344 28.9316 37.4066 28.6429 37.3016C28.4329 37.2229 24.4495 39.9004 23.0976 40.1235C21.7457 40.3466 19.6523 41.0554 19.4095 39.9791C19.252 39.2966 19.6982 38.4238 21.3651 38.0235C22.5529 37.7413 26.3985 36.4944 29.3582 34.1713C33.3548 31.0344 32.0685 26.7754 31.4188 26.5522C31.117 26.9394 30.3491 29.0919 29.1088 29.9254C27.8685 30.7588 18.1429 35.5691 15.6163 37.2819C13.0832 38.9816 7.28196 44.7566 5.75946 48.7335C4.23696 52.7104 4.82102 57.3304 4.82102 57.3304Z" fill="white"/>
<path d="M31.3485 26.5327C31.7029 26.4015 31.5979 28.0683 31.1517 28.8755C30.5807 29.919 27.7917 31.914 26.2035 32.813C24.6154 33.7121 10.5388 40.7602 8.05165 47.7952C5.56447 54.8302 6.64728 60.3099 7.66447 64.6412C7.84166 65.3958 8.22228 66.8855 7.9204 67.0955C7.83509 67.1546 5.63666 66.564 4.21916 63.5321C2.40791 59.6536 1.94197 53.5833 3.72041 48.189C5.56447 42.5977 9.48228 38.7324 15.3754 35.3396C20.1792 32.5768 24.8517 30.8311 26.2429 29.9977C27.6342 29.1577 30.7448 26.7624 31.3485 26.5327Z" fill="white"/>
</svg>
