<svg width="71" height="78" viewBox="0 0 71 78" fill="none" xmlns="http://www.w3.org/2000/svg">
<mask id="path-1-inside-1_106_1989" fill="white">
<path d="M44.017 0.00107022C28.8499 0.103004 11.8641 9.08113 5.18018 22.109C-4.45254 40.8837 0.424996 58.9253 10.9974 77.9555L42.635 77.9552C42.7579 77.9604 42.8809 77.9615 43.0039 77.9585C43.0274 77.9582 43.0503 77.956 43.0741 77.9552H52.01C50.2692 77.3738 48.5433 76.6447 46.8494 75.7892C48.5215 72.9697 47.2402 68.4184 43.0032 68.5327C41.2368 68.5808 39.985 69.4117 39.2458 70.5617C37.6756 69.1677 36.21 67.6601 34.8518 66.068C37.3258 63.4129 36.2356 57.9103 31.583 58.0361C30.8098 58.0569 30.136 58.2282 29.5597 58.5101C28.6327 56.8806 27.7993 55.1996 27.0637 53.4752C30.2356 51.1023 29.3373 44.8064 24.3669 44.9362C24.1528 43.9046 23.9797 42.8649 23.8483 41.8196C23.7581 41.0949 23.6898 40.3677 23.6434 39.639C28.1723 38.6849 28.4214 31.9446 24.3905 30.5687C24.7446 29.1722 25.2143 27.8439 25.8028 26.6023L25.8091 26.589C26.4272 26.9509 27.1897 27.1559 28.0981 27.1313C32.1647 27.0248 33.321 22.4796 31.5685 19.957C32.2857 19.4168 33.024 18.9054 33.7818 18.424C34.0496 18.255 34.3227 18.0946 34.6006 17.943C34.9552 19.7759 36.3451 21.3455 38.7719 21.28C41.986 21.196 43.3819 18.3373 42.9605 15.8972C44.7369 15.8109 46.3954 15.9636 47.9058 16.3081C47.3639 18.4763 48.5317 21.0977 51.4097 21.0196C52.7119 20.9856 53.6636 20.417 54.2657 19.6064C54.4939 19.8288 54.7114 20.062 54.9176 20.3049C55.7631 21.3027 56.3761 22.4107 56.7289 23.6075C54.0416 24.4754 53.9352 28.5835 56.4101 29.5728C55.9043 30.9265 55.0891 32.3336 53.9069 33.7569C53.5082 33.2975 52.9075 32.9992 52.104 33.0209C49.7892 33.084 49.1549 35.7047 50.1981 37.1071C49.0274 37.8613 47.927 38.3299 46.9256 38.578C47.0329 37.5822 46.4437 36.5147 45.1549 36.5492C43.9384 36.5824 43.3453 37.5633 43.3724 38.5056C43.3317 38.4906 43.2906 38.476 43.2507 38.4603C42.6043 38.1075 42.0013 37.5671 41.4627 36.7852C43.1229 36.2954 43.1494 33.7139 41.5388 33.2474C41.7735 32.7166 42.1049 32.1546 42.551 31.5716C42.9687 31.8488 43.6389 32.0356 44.5652 32.0232C46.6507 31.9966 47.4456 30.9988 46.9537 30.2501C46.9586 30.2507 46.9634 30.2511 46.9683 30.2513L46.9404 30.2285C46.8068 30.0363 46.5865 29.8616 46.2805 29.7255C44.705 28.6555 42.8596 28.2682 41.1788 28.5139L41.1307 28.4683C41.1108 28.4892 41.0925 28.5103 41.0726 28.5314C37.6648 29.0858 34.9785 32.2581 36.6908 37.6207C43.045 57.521 76.9253 40.6648 69.8496 19.1017C65.5028 5.85445 56.6741 0.143844 44.7377 0.00107022V0.00273041C44.498 -3.65124e-05 44.2577 -0.00070043 44.0169 0.000738372L44.017 0.00107022ZM45.8429 9.03398C48.2073 9.08628 49.0574 11.4561 48.3954 13.2292C46.9107 12.9096 45.3284 12.7497 43.6714 12.7703C43.3722 12.7743 43.0704 12.7848 42.7666 12.8002C42.4553 11.1032 43.4196 9.09673 45.6614 9.03498C45.7229 9.03332 45.7833 9.03287 45.8429 9.03398ZM30.9576 12.3008C32.6609 12.3385 33.5768 13.5795 33.7098 14.9332C31.9148 15.7121 30.3058 16.6846 28.8807 17.8175C27.0014 16.2992 27.6311 12.3855 30.776 12.3013C30.8374 12.2996 30.8979 12.2995 30.9576 12.3008ZM58.9083 16.2415C62.3814 16.3184 62.59 21.3973 59.5314 22.2364C59.0383 20.802 58.277 19.4699 57.2852 18.2995C57.0116 17.9772 56.7232 17.6679 56.4209 17.3724C56.911 16.724 57.679 16.2701 58.7269 16.2419C58.7883 16.2402 58.8488 16.2401 58.9083 16.2415ZM22.2333 24.1964C22.6796 24.2063 23.071 24.2993 23.4094 24.4547C23.2677 24.7246 23.1305 24.9975 22.9998 25.2735C22.256 26.842 21.6845 28.5051 21.2737 30.2387C18.1352 29.5753 18.392 24.2946 22.052 24.1967C22.1134 24.1951 22.1739 24.195 22.2335 24.1964H22.2333ZM59.4585 30.2669C62.313 31.1667 61.9637 36.146 58.4121 36.2385C57.5714 36.2612 56.9113 35.9999 56.4299 35.5744C57.8438 33.8346 58.8486 32.0486 59.4585 30.2669ZM19.893 39.1494C20.0114 39.152 20.1259 39.1605 20.238 39.1726C20.3284 39.2257 20.4216 39.2754 20.5177 39.3215C20.5662 40.2753 20.6495 41.2364 20.7697 42.2027C20.9271 43.4661 21.1492 44.7386 21.4248 46.014C21.3188 46.1063 21.2178 46.2031 21.122 46.3045C20.7003 46.4864 20.2177 46.5972 19.6714 46.6113C14.8615 46.7408 14.8622 39.2804 19.671 39.15C19.7463 39.1479 19.8203 39.1477 19.8932 39.1494H19.893ZM51.9843 39.6396C52.6372 41.0879 51.9172 43.2382 49.8241 43.2931C48.5474 43.3277 47.7833 42.5555 47.5281 41.6119C48.9666 41.2699 50.4729 40.6204 51.9843 39.6396ZM23.7102 54.3406C23.8222 54.3509 23.936 54.3589 24.0522 54.3622C25.0001 56.6404 26.1096 58.8479 27.3722 60.968C27.3651 60.987 27.3581 61.0062 27.3512 61.0256C26.7366 61.592 25.8996 61.9646 24.8349 61.9921C20.1961 62.117 19.8224 55.5154 23.7105 54.3405L23.7102 54.3406ZM31.9319 67.4416C33.8561 69.7675 35.999 71.9366 38.3493 73.883C37.6128 75.0491 36.3543 75.8938 34.5721 75.9399C29.6281 76.0737 28.7097 69.8604 31.8117 67.4509C31.852 67.4482 31.8921 67.4451 31.9319 67.4416Z"/>
</mask>
<path d="M44.017 0.00107022C28.8499 0.103004 11.8641 9.08113 5.18018 22.109C-4.45254 40.8837 0.424996 58.9253 10.9974 77.9555L42.635 77.9552C42.7579 77.9604 42.8809 77.9615 43.0039 77.9585C43.0274 77.9582 43.0503 77.956 43.0741 77.9552H52.01C50.2692 77.3738 48.5433 76.6447 46.8494 75.7892C48.5215 72.9697 47.2402 68.4184 43.0032 68.5327C41.2368 68.5808 39.985 69.4117 39.2458 70.5617C37.6756 69.1677 36.21 67.6601 34.8518 66.068C37.3258 63.4129 36.2356 57.9103 31.583 58.0361C30.8098 58.0569 30.136 58.2282 29.5597 58.5101C28.6327 56.8806 27.7993 55.1996 27.0637 53.4752C30.2356 51.1023 29.3373 44.8064 24.3669 44.9362C24.1528 43.9046 23.9797 42.8649 23.8483 41.8196C23.7581 41.0949 23.6898 40.3677 23.6434 39.639C28.1723 38.6849 28.4214 31.9446 24.3905 30.5687C24.7446 29.1722 25.2143 27.8439 25.8028 26.6023L25.8091 26.589C26.4272 26.9509 27.1897 27.1559 28.0981 27.1313C32.1647 27.0248 33.321 22.4796 31.5685 19.957C32.2857 19.4168 33.024 18.9054 33.7818 18.424C34.0496 18.255 34.3227 18.0946 34.6006 17.943C34.9552 19.7759 36.3451 21.3455 38.7719 21.28C41.986 21.196 43.3819 18.3373 42.9605 15.8972C44.7369 15.8109 46.3954 15.9636 47.9058 16.3081C47.3639 18.4763 48.5317 21.0977 51.4097 21.0196C52.7119 20.9856 53.6636 20.417 54.2657 19.6064C54.4939 19.8288 54.7114 20.062 54.9176 20.3049C55.7631 21.3027 56.3761 22.4107 56.7289 23.6075C54.0416 24.4754 53.9352 28.5835 56.4101 29.5728C55.9043 30.9265 55.0891 32.3336 53.9069 33.7569C53.5082 33.2975 52.9075 32.9992 52.104 33.0209C49.7892 33.084 49.1549 35.7047 50.1981 37.1071C49.0274 37.8613 47.927 38.3299 46.9256 38.578C47.0329 37.5822 46.4437 36.5147 45.1549 36.5492C43.9384 36.5824 43.3453 37.5633 43.3724 38.5056C43.3317 38.4906 43.2906 38.476 43.2507 38.4603C42.6043 38.1075 42.0013 37.5671 41.4627 36.7852C43.1229 36.2954 43.1494 33.7139 41.5388 33.2474C41.7735 32.7166 42.1049 32.1546 42.551 31.5716C42.9687 31.8488 43.6389 32.0356 44.5652 32.0232C46.6507 31.9966 47.4456 30.9988 46.9537 30.2501C46.9586 30.2507 46.9634 30.2511 46.9683 30.2513L46.9404 30.2285C46.8068 30.0363 46.5865 29.8616 46.2805 29.7255C44.705 28.6555 42.8596 28.2682 41.1788 28.5139L41.1307 28.4683C41.1108 28.4892 41.0925 28.5103 41.0726 28.5314C37.6648 29.0858 34.9785 32.2581 36.6908 37.6207C43.045 57.521 76.9253 40.6648 69.8496 19.1017C65.5028 5.85445 56.6741 0.143844 44.7377 0.00107022V0.00273041C44.498 -3.65124e-05 44.2577 -0.00070043 44.0169 0.000738372L44.017 0.00107022ZM45.8429 9.03398C48.2073 9.08628 49.0574 11.4561 48.3954 13.2292C46.9107 12.9096 45.3284 12.7497 43.6714 12.7703C43.3722 12.7743 43.0704 12.7848 42.7666 12.8002C42.4553 11.1032 43.4196 9.09673 45.6614 9.03498C45.7229 9.03332 45.7833 9.03287 45.8429 9.03398ZM30.9576 12.3008C32.6609 12.3385 33.5768 13.5795 33.7098 14.9332C31.9148 15.7121 30.3058 16.6846 28.8807 17.8175C27.0014 16.2992 27.6311 12.3855 30.776 12.3013C30.8374 12.2996 30.8979 12.2995 30.9576 12.3008ZM58.9083 16.2415C62.3814 16.3184 62.59 21.3973 59.5314 22.2364C59.0383 20.802 58.277 19.4699 57.2852 18.2995C57.0116 17.9772 56.7232 17.6679 56.4209 17.3724C56.911 16.724 57.679 16.2701 58.7269 16.2419C58.7883 16.2402 58.8488 16.2401 58.9083 16.2415ZM22.2333 24.1964C22.6796 24.2063 23.071 24.2993 23.4094 24.4547C23.2677 24.7246 23.1305 24.9975 22.9998 25.2735C22.256 26.842 21.6845 28.5051 21.2737 30.2387C18.1352 29.5753 18.392 24.2946 22.052 24.1967C22.1134 24.1951 22.1739 24.195 22.2335 24.1964H22.2333ZM59.4585 30.2669C62.313 31.1667 61.9637 36.146 58.4121 36.2385C57.5714 36.2612 56.9113 35.9999 56.4299 35.5744C57.8438 33.8346 58.8486 32.0486 59.4585 30.2669ZM19.893 39.1494C20.0114 39.152 20.1259 39.1605 20.238 39.1726C20.3284 39.2257 20.4216 39.2754 20.5177 39.3215C20.5662 40.2753 20.6495 41.2364 20.7697 42.2027C20.9271 43.4661 21.1492 44.7386 21.4248 46.014C21.3188 46.1063 21.2178 46.2031 21.122 46.3045C20.7003 46.4864 20.2177 46.5972 19.6714 46.6113C14.8615 46.7408 14.8622 39.2804 19.671 39.15C19.7463 39.1479 19.8203 39.1477 19.8932 39.1494H19.893ZM51.9843 39.6396C52.6372 41.0879 51.9172 43.2382 49.8241 43.2931C48.5474 43.3277 47.7833 42.5555 47.5281 41.6119C48.9666 41.2699 50.4729 40.6204 51.9843 39.6396ZM23.7102 54.3406C23.8222 54.3509 23.936 54.3589 24.0522 54.3622C25.0001 56.6404 26.1096 58.8479 27.3722 60.968C27.3651 60.987 27.3581 61.0062 27.3512 61.0256C26.7366 61.592 25.8996 61.9646 24.8349 61.9921C20.1961 62.117 19.8224 55.5154 23.7105 54.3405L23.7102 54.3406ZM31.9319 67.4416C33.8561 69.7675 35.999 71.9366 38.3493 73.883C37.6128 75.0491 36.3543 75.8938 34.5721 75.9399C29.6281 76.0737 28.7097 69.8604 31.8117 67.4509C31.852 67.4482 31.8921 67.4451 31.9319 67.4416Z" fill="#004D56" stroke="black" mask="url(#path-1-inside-1_106_1989)"/>
</svg>
